<svg xmlns="http://www.w3.org/2000/svg" fill="currentColor" viewBox="0 0 108 24">
  <path d="M0 2h4v4H0zm0 20h4v-4H0zM20 2h4v4h-4zm0 20h4v-4h-4zM4 6h16v4H4zm0 12h16v-4H4zm99.038.607c-.967 0-1.8-.206-2.499-.62a4.204 4.204 0 0 1-1.611-1.758c-.375-.758-.563-1.647-.563-2.665 0-1.006.188-1.892.563-2.66.38-.766.908-1.365 1.585-1.795.682-.43 1.479-.646 2.391-.646.554 0 1.091.092 1.611.275.52.183.986.47 1.399.863.414.392.74.901.978 1.528.239.622.358 1.378.358 2.269v.677h-7.804v-1.431h5.932c0-.503-.103-.949-.307-1.337a2.321 2.321 0 0 0-.863-.926c-.367-.226-.797-.34-1.291-.34-.537 0-1.006.133-1.407.397-.396.26-.703.601-.92 1.023-.213.418-.32.871-.32 1.361v1.12c0 .655.115 1.213.345 1.674.235.46.561.812.978 1.055.418.238.906.357 1.464.357.362 0 .693-.05.991-.153a2.047 2.047 0 0 0 1.272-1.246l1.809.326a3.284 3.284 0 0 1-.78 1.4 3.778 3.778 0 0 1-1.4.926c-.558.218-1.195.326-1.911.326Zm-10.504 3.689c-.78 0-1.451-.103-2.014-.307-.558-.205-1.014-.476-1.368-.812a3.41 3.41 0 0 1-.792-1.106l1.642-.678c.115.188.269.386.46.595.197.213.46.394.793.543.337.15.77.224 1.298.224.724 0 1.323-.177 1.796-.53.473-.35.71-.908.71-1.675v-1.93h-.122a4.355 4.355 0 0 1-.498.696c-.214.256-.508.477-.883.665-.375.187-.863.281-1.463.281-.776 0-1.475-.181-2.097-.543-.618-.367-1.108-.906-1.47-1.617-.358-.716-.537-1.596-.537-2.64s.177-1.94.53-2.685c.358-.746.848-1.317 1.47-1.713.623-.4 1.328-.6 2.116-.6.61 0 1.102.101 1.477.306.375.2.667.435.876.703.213.268.377.505.492.71h.14V8.59h1.873v10.035c0 .844-.196 1.537-.588 2.078-.392.541-.922.942-1.591 1.201-.665.26-1.415.39-2.25.39Zm-.02-5.62c.55 0 1.015-.127 1.394-.383.383-.26.673-.63.87-1.112.2-.486.3-1.067.3-1.745 0-.66-.098-1.242-.294-1.745-.196-.503-.484-.895-.863-1.176-.38-.286-.848-.428-1.407-.428-.575 0-1.054.149-1.438.447-.383.294-.673.695-.87 1.202a4.777 4.777 0 0 0-.287 1.7c0 .644.098 1.208.294 1.694.196.486.486.865.87 1.138.387.273.865.409 1.431.409Zm-10.768 1.95a4.01 4.01 0 0 1-1.687-.345 2.843 2.843 0 0 1-1.195-1.016c-.29-.443-.435-.987-.435-1.63 0-.554.106-1.01.32-1.368.213-.358.5-.641.863-.85a4.505 4.505 0 0 1 1.214-.473 12.08 12.08 0 0 1 1.368-.243l1.432-.166c.366-.047.632-.122.799-.224.166-.102.249-.268.249-.498v-.045c0-.559-.158-.991-.473-1.298-.311-.307-.776-.46-1.393-.46-.644 0-1.151.143-1.522.428-.366.281-.62.595-.76.94l-1.797-.41c.213-.596.525-1.077.934-1.444.413-.37.888-.639 1.425-.805a5.565 5.565 0 0 1 1.694-.256c.392 0 .808.047 1.246.14.444.09.857.256 1.24.5.388.242.706.59.953 1.041.247.448.37 1.03.37 1.745v6.52h-1.866v-1.342h-.077c-.123.247-.308.49-.556.729a2.956 2.956 0 0 1-.952.594c-.388.158-.852.236-1.394.236Zm.416-1.534c.528 0 .98-.104 1.355-.313.38-.209.667-.481.863-.818.2-.341.3-.705.3-1.093v-1.266c-.068.069-.2.132-.396.192a6.189 6.189 0 0 1-.658.147c-.248.038-.488.075-.723.109l-.588.076a4.74 4.74 0 0 0-1.016.237c-.303.11-.546.27-.729.48-.179.204-.268.477-.268.818 0 .473.174.83.524 1.073.35.239.795.358 1.336.358ZM63.7 18.41V8.59h1.835v1.599h.122a2.539 2.539 0 0 1 1.003-1.266c.465-.307 1.021-.46 1.669-.46.656 0 1.206.153 1.649.46.447.307.778.729.99 1.266h.103a2.762 2.762 0 0 1 1.119-1.253c.51-.315 1.12-.473 1.828-.473.89 0 1.617.28 2.18.837.566.559.85 1.4.85 2.525v6.584h-1.912v-6.405c0-.665-.18-1.146-.543-1.444a1.976 1.976 0 0 0-1.298-.448c-.622 0-1.105.192-1.45.575-.346.38-.518.868-.518 1.464v6.258h-1.905v-6.526c0-.533-.166-.961-.499-1.285-.332-.324-.765-.486-1.297-.486-.363 0-.697.096-1.004.288a2.11 2.11 0 0 0-.735.786 2.408 2.408 0 0 0-.275 1.17v6.053h-1.911Zm-1.25-9.82v1.535H56.9V8.591h5.55Zm-4.028 9.82V7.452c0-.614.134-1.123.403-1.528a2.47 2.47 0 0 1 1.067-.914 3.405 3.405 0 0 1 1.445-.306c.383 0 .711.031.984.095.273.06.475.115.608.167l-.448 1.546a9.105 9.105 0 0 0-.345-.089 1.966 1.966 0 0 0-.512-.058c-.464 0-.796.116-.997.346-.196.23-.294.562-.294.997v10.7h-1.91ZM55.925 5.318V18.41h-1.911V5.32h1.911Zm-8.582 13.308a4.01 4.01 0 0 1-1.687-.345 2.844 2.844 0 0 1-1.196-1.016c-.29-.443-.434-.987-.434-1.63 0-.554.106-1.01.32-1.368.212-.358.5-.641.862-.85a4.505 4.505 0 0 1 1.215-.473 12.08 12.08 0 0 1 1.368-.243l1.431-.166c.367-.047.633-.122.8-.224.166-.102.249-.268.249-.498v-.045c0-.559-.158-.991-.473-1.298-.311-.307-.776-.46-1.394-.46-.643 0-1.15.143-1.521.428-.367.281-.62.595-.76.94l-1.797-.41c.213-.596.524-1.077.933-1.444.414-.37.889-.639 1.426-.805a5.565 5.565 0 0 1 1.694-.256c.392 0 .807.047 1.246.14.443.09.857.256 1.24.5.388.242.706.59.953 1.041.247.448.37 1.03.37 1.745v6.52h-1.866v-1.342h-.077a2.72 2.72 0 0 1-.556.729 2.956 2.956 0 0 1-.952.594c-.388.158-.853.236-1.394.236Zm.416-1.534c.528 0 .98-.104 1.355-.313.38-.209.667-.481.863-.818.2-.341.3-.705.3-1.093v-1.266c-.068.069-.2.132-.396.192a6.183 6.183 0 0 1-.659.147c-.247.038-.487.075-.722.109l-.588.076a4.74 4.74 0 0 0-1.016.237c-.303.11-.546.27-.729.48-.179.204-.268.477-.268.818 0 .473.174.83.524 1.073.35.239.794.358 1.336.358ZM32 18.41V5.317h1.975v5.69h6.526v-5.69h1.982V18.41h-1.982v-5.708h-6.526v5.708H32Z"/>
</svg>
